<mxfile host="app.diagrams.net" modified="2023-05-30T12:40:46.958Z" agent="Mozilla/5.0 (Windows NT 10.0; Win64; x64) AppleWebKit/537.36 (KHTML, like Gecko) Chrome/115.0.0.0 Safari/537.36 Edg/115.0.0.0" version="21.3.5" etag="M-xRneJKiCPe6_pNCXXR" type="github">
  <diagram name="PÃ¡gina-1" id="bpVqv8HVQX5Lj6zFMIza">
    <mxGraphModel>
      <root>
        <mxCell id="0" />
        <mxCell id="1" parent="0" />
      </root>
    </mxGraphModel>
  </diagram>
</mxfile>
